<svg xmlns="http://www.w3.org/2000/svg" width="1600" height="900"><rect width="1600" height="900 fill="#f7f7f7"/><rect x="45" y="35" width="1510" height="830" rx="18" fill="white" stroke="#ddd"/><text x="85" y="95" font-family="Arial" font-size="34" font-weight="700">📡 Radar de Editais</text><text x="85" y="130" font-family="Arial" font-size="18" fill="#666">Public Procurement Intelligence · synthetic demo</text><g font-family="Arial"><text x="85" y="200" font-size="15" fill="#666">EDITAIS TRIADOS</text><text x="85" y="245" font-size="36" font-weight="700">128</text><text x="390" y="200" font-size="15" fill="#666">ALTA ADERÊNCIA</text><text x="390" y="245" font-size="36" font-weight="700">17</text><text x="695" y="200" font-size="15" fill="#666">CONCORRER</text><text x="695" y="245" font-size="36" font-weight="700">8</text><text x="1000" y="200" font-size="15" fill="#666">PROSPECTÁVEIS</text><text x="1000" y="245" font-size="36" font-weight="700">11</text><line x1="85" y1="285" x2="1480" y2="285" stroke="#ddd"/><text x="85" y="335" font-size="23" font-weight="700">Prioritized opportunities</text><rect x="85" y="365" width="1395" height="105" rx="10" fill="white" stroke="#ddd"/><text x="110" y="405" font-size="18" font-weight="700">Training in machine safety — NR-12</text><text x="110" y="435" font-size="14" fill="#666">Maceió/AL · Competition · catalog match</text><text x="1240" y="420" font-size="28" font-weight="700">94%</text><text x="1350" y="420" font-size="14">CONCORRER</text><rect x="85" y="495" width="1395" height="105" rx="10" fill="white" stroke="#ddd"/><text x="110" y="535" font-size="18" font-weight="700">Preventive maintenance services</text><text x="110" y="565" font-size="14" fill="#666">Maceió/AL · Competition · semantic match</text><text x="1240" y="550" font-size="28" font-weight="700">88%</text><text x="1350" y="550" font-size="14">CONCORRER</text><rect x="85" y="625" width="1395" height="105" rx="10" fill="white" stroke="#ddd"/><text x="110" y="665" font-size="18" font-weight="700">Productivity and process training</text><text x="110" y="695" font-size="14" fill="#666">Rio Largo/AL · Monitoring · opportunity signal</text><text x="1240" y="680" font-size="28" font-weight="700">76%</text><text x="1350" y="680" font-size="14">MONITORAR</text><text x="85" y="790" font-size="14" fill="#777">Evidence → Retrieval → AI reasoning → Validation → Prioritization → Decision support</text><text x="85" y="820" font-size="13" fill="#888">DEMO — synthetic tender data.</text></g></svg>